,
.   http://www.scenetime.com/signup.php  ---&gt;  Hottest scene tracker on the net !!! 
Scenetime lucky draw is started , join now and be the winner . offer is limited 

    Join Now   http://www.scenetime.com/signup.php

    seed back for speed


 



...................................NFO:.................................................#################################################################################
#################################################################################
#################doooN######dso+++os###yooooosshN########dso+++osh###############
#################y   N###N+`   ...` N##-  `--.   /#####/`   ...` -###############
#################y   N##d`  -hN########-  /###o   h##h`  -h#####Nd###############
#################y   N##-  `N##########-  :##h-  :N##`  -###hhhhhh###############
#################y   N##`  -###########-       :d###N   /##N      o##############
#################o   N##:   h##########-  :#h.  :N###-  `###NNN   o##############
##ssN#ssNdss#yyyo`  +###N-   -oyyyo:N##-  /##N:  `h###-   /syys   o##ssd#ss#Nss##
##NN##NN##NN#:   `-y######h/.     `-N##-  /####o  `o###h/.      .:h##NN##NN##NN##
##############NNN#############NNNN#########################NNNN##################
#################################################################################
#################################################################################
  
Mission.Impossible.Ghost.Protocol.2011.CAM.NEW.AUDIO.XViD-SIC


Description:
The IMF is shut down when it's implicated in the bombing of the Kremlin, causing 
Ethan Hunt and his new team to go rogue to clear their organization's name. 

IMDB Rating: 7.9 
Genre: Action | Adventure | Thriller 

IMDB Link:
www.imdb.com/title/tt1229238/

MediaInfo:
Format                           : AVI
Format/Info                      : Audio Video Interleave
File size                        : 1.38 GiB
Duration                         : 2h 6mn
Overall bit rate                 : 1 562 Kbps
Writing library                  : VirtualDub build 31536/release

Video
ID                               : 0
Format                           : MPEG-4 Visual
Format profile                   : Advanced Simple@L5
Format settings, BVOP            : 2
Format settings, QPel            : No
Format settings, GMC             : No warppoints
Format settings, Matrix          : Default (MPEG)
Muxing mode                      : Packed bitstream
Codec ID                         : XVID
Codec ID/Hint                    : XviD
Duration                         : 2h 6mn
Bit rate                         : 1 424 Kbps
Width                            : 642 pixels
Height                           : 282 pixels
Display aspect ratio             : 2.25:1
Frame rate                       : 25.000 fps
Color space                      : YUV
Chroma subsampling               : 4:2:0
Bit depth                        : 8 bits
Scan type                        : Progressive
Compression mode                 : Lossy
Bits/(Pixel*Frame)               : 0.315
Stream size                      : 1.26 GiB (91%)
Writing library                  : XviD 64

Audio
ID                               : 1
Format                           : MPEG Audio
Format version                   : Version 1
Format profile                   : Layer 3
Mode                             : Joint stereo
Mode extension                   : MS Stereo
Codec ID                         : 55
Codec ID/Hint                    : MP3
Duration                         : 2h 6mn
Bit rate mode                    : Constant
Bit rate                         : 128 Kbps
Channel(s)                       : 2 channels
Sampling rate                    : 48.0 KHz
Compression mode                 : Lossy
Delay relative to video          : 8ms
Stream size                      : 116 MiB (8%)
Alignment                        : Split accross interleaves
Interleave, duration             : 40 ms (1.00 video frame)
Interleave, preload duration     : 500 ms

Screens:

Note: 
OK got new cam audio for this release, but same video as before
Audio to me sounds clearer than the last... So had to cut video 
as video is missing afew seconds here and there.. but audio was 
complete, so audio may go OOS afew secs but comes back again
.... As for video used DTRG rip with the first missing minute 
added... but added afew fitlers to improve alittle so did that 
anyway so please enjoy and no complaining its free, or get some 
balls and do it youself lol hahaha...  btw when getting audio 
a txt came to phone so u hear that lol  one once but haha.. 
Check sample to see what i mean :P

Source: 
Video 1 &gt; Cam XViD DTRG [Thanks]
Video 1 &gt; CAM XviD BBnRG [Thanks]
Audio &gt; Own :)

Enjoy!

Respects to:
DTRG, SiC, FYA, ViSiON, SANTi, HiVE-CM8, SeT-CM8
BBnRG, RemixHD, LTRG... And MANY others 

#################################################################################
#################################################################################